# xmcd
#
# Track frame offsets: 
#        150
#        12056
#        24270
#        37276
#        53226
#        65521
#        75706
#        91434
#        104234
#        116426
#
# Disc length: 1716 seconds
#
# Revision: 0
# Processed by: cddbd v1.5.2PL0 Copyright (c) Steve Scherf et al.
# Submitted via: ExactAudioCopyFreeDBPlugin 1.0
#
DISCID=8006b20a
DTITLE=Various Artist - Country Legends
DYEAR=2009
DGENRE=Country
TTITLE0=Lee Greenwood - God Bless the USA
TTITLE1=Lynn Anderson - Stand By Your Man
TTITLE2=T. Graham Brown - I Tell It Like It Used to Be
TTITLE3=Pam Tillis - Mi Vida Loca
TTITLE4=Tanya Tucker - Don't Believe My Heart Can Stand Another You
TTITLE5=Faron Young - Live Fast, Love Hard, Die Young
TTITLE6=Doug Stone - Jukebox and a Country Song
TTITLE7=T. G. Sheppard - Devil in the Bottle
TTITLE8=Dolly Parton - Letter to Heaven
TTITLE9=Merle Haggard - The Fighting Side of Me
EXTD=
EXTT0=
EXTT1=
EXTT2=
EXTT3=
EXTT4=
EXTT5=
EXTT6=
EXTT7=
EXTT8=
EXTT9=
PLAYORDER=
